<svg xmlns="http://www.w3.org/2000/svg" viewBox="0 0 512 512"><path d="M48 224h416c9 0 16-7 16-16v-32c0-9-7-16-16-16H48c-9 0-16 7-16 16v32C32 217 39 224 48 224zM464 416H48c-9 0-16 7-16 16v32c0 9 7 16 16 16h416c9 0 16-7 16-16v-32C480 423 473 416 464 416zM467 32H205c-7 0-13 6-13 13 0 0 0 0 0 0v38c0 7 6 13 13 13 0 0 0 0 0 0h262c7 0 13-6 13-13 0 0 0 0 0 0V45c0-7-6-13-13-13C467 32 467 32 467 32zM467 288H205c-7 0-13 6-13 13 0 0 0 0 0 0v38c0 7 6 13 13 13 0 0 0 0 0 0h262c7 0 13-6 13-13 0 0 0 0 0 0v-38c0-7-6-13-13-13C467 288 467 288 467 288z"/></svg>