<svg xmlns="http://www.w3.org/2000/svg" viewBox="0 0 512 512"><path d="M45 352h262c7 0 13-6 13-13 0 0 0 0 0 0v-38c0-7-6-13-13-13 0 0 0 0 0 0H45c-7 0-13 6-13 13 0 0 0 0 0 0v38c0 7 6 13 13 13C45 352 45 352 45 352zM45 96h262c7 0 13-6 13-13 0 0 0 0 0 0V45c0-7-6-13-13-13 0 0 0 0 0 0H45C38 32 32 38 32 45c0 0 0 0 0 0v38C32 90 38 96 45 96 45 96 45 96 45 96zM464 160H48c-9 0-16 7-16 16v32c0 9 7 16 16 16h416c9 0 16-7 16-16v-32C480 167 473 160 464 160zM464 416H48c-9 0-16 7-16 16v32c0 9 7 16 16 16h416c9 0 16-7 16-16v-32C480 423 473 416 464 416z"/></svg>