<svg xmlns="http://www.w3.org/2000/svg" viewBox="0 0 512 512"><path d="M272 416h-32c-9 0-16 7-16 16v32c0 9 7 16 16 16h32c9 0 16-7 16-16v-32C288 423 281 416 272 416z"/><path d="M176 416h-32c-9 0-16 7-16 16v32c0 9 7 16 16 16h32c9 0 16-7 16-16v-32C192 423 185 416 176 416z"/><path d="M80 416H48c-9 0-16 7-16 16v32c0 9 7 16 16 16h32c9 0 16-7 16-16v-32C96 423 89 416 80 416z"/><path d="M368 416h-32c-9 0-16 7-16 16v32c0 9 7 16 16 16h32c9 0 16-7 16-16v-32C384 423 377 416 368 416z"/><path d="M368 32h-32c-9 0-16 7-16 16v32c0 9 7 16 16 16h32c9 0 16-7 16-16V48C384 39 377 32 368 32z"/><path d="M464 224h-32c-9 0-16 7-16 16v32c0 9 7 16 16 16h32c9 0 16-7 16-16v-32C480 231 473 224 464 224z"/><path d="M464 320h-32c-9 0-16 7-16 16v32c0 9 7 16 16 16h32c9 0 16-7 16-16v-32C480 327 473 320 464 320z"/><path d="M80 320H48c-9 0-16 7-16 16v32c0 9 7 16 16 16h32c9 0 16-7 16-16v-32C96 327 89 320 80 320z"/><path d="M464 416h-32c-9 0-16 7-16 16v32c0 9 7 16 16 16h32c9 0 16-7 16-16v-32C480 423 473 416 464 416z"/><path d="M464 128h-32c-9 0-16 7-16 16v32c0 9 7 16 16 16h32c9 0 16-7 16-16v-32C480 135 473 128 464 128z"/><path d="M464 32h-32c-9 0-16 7-16 16v32c0 9 7 16 16 16h32c9 0 16-7 16-16V48C480 39 473 32 464 32z"/><path d="M272 32h-16C132 32 32 132 32 256V272c0 9 7 16 16 16h32c9 0 16-7 16-16l0-16c0-88 72-159 159-159L272 96c9 0 16-7 16-16V48C288 39 281 32 272 32z"/></svg>
